<?xml version="1.0" encoding="UTF-8"?>
<svg height="128" viewBox="0 0 16 16" width="128" xmlns="http://www.w3.org/2000/svg">
  <rect x="0" y="1" width="16" height="14" rx="3" ry="3" fill="#1a73e8"/>
  <rect x="1" y="2" width="14" height="12" rx="2" ry="2" fill="#4285f4"/>
  <!-- "C" left -->
  <path d="M 6.1 5.8 C 5.0 5.8 4.0 6.6 4.0 8.0 c 0 1.4 1.0 2.2 2.1 2.2 c 0.7 0 1.2-0.3 1.5-0.8 L 6.8 9.0 C 6.6 9.3 6.4 9.4 6.1 9.4 c-0.6 0-1.1-0.5-1.1-1.4 c 0-0.9 0.5-1.4 1.1-1.4 c 0.3 0 0.5 0.1 0.7 0.4 l 0.8-0.4 C 7.3 6.1 6.8 5.8 6.1 5.8 Z" fill="#ffffff"/>
  <!-- "C" right -->
  <path d="M 11.1 5.8 C 10.0 5.8 9.0 6.6 9.0 8.0 c 0 1.4 1.0 2.2 2.1 2.2 c 0.7 0 1.2-0.3 1.5-0.8 L 11.8 9.0 C 11.6 9.3 11.4 9.4 11.1 9.4 c-0.6 0-1.1-0.5-1.1-1.4 c 0-0.9 0.5-1.4 1.1-1.4 c 0.3 0 0.5 0.1 0.7 0.4 l 0.8-0.4 C 12.3 6.1 11.8 5.8 11.1 5.8 Z" fill="#ffffff"/>
</svg>
